<mxfile host="app.diagrams.net" modified="2024-06-28T13:53:09.705Z" agent="Mozilla/5.0 (Macintosh; Intel Mac OS X 10_15_7) AppleWebKit/537.36 (KHTML, like Gecko) Chrome/126.0.0.0 Safari/537.36" etag="LyTeCfUFRAGLvAcuGcj8" version="24.6.3" type="device">
  <diagram name="第 1 页" id="tvttNyG0uF9QgLNNSatJ">
    <mxGraphModel dx="3115" dy="1290" grid="0" gridSize="10" guides="1" tooltips="1" connect="1" arrows="1" fold="1" page="1" pageScale="1" pageWidth="3300" pageHeight="4681" math="0" shadow="0">
      <root>
        <mxCell id="0" />
        <mxCell id="1" parent="0" />
        <mxCell id="B9pUcW5qPqLrljrNED_7-624" value="" style="rounded=1;whiteSpace=wrap;html=1;dashed=1;dashPattern=8 8;strokeColor=#006666;perimeterSpacing=3;glass=0;gradientColor=none;fillStyle=hatch;fillColor=default;strokeWidth=3;" vertex="1" parent="1">
          <mxGeometry x="1049" y="2154.98" width="940" height="140" as="geometry" />
        </mxCell>
        <mxCell id="B9pUcW5qPqLrljrNED_7-25" value="" style="swimlane;startSize=20;horizontal=1;childLayout=treeLayout;horizontalTree=0;sortEdges=1;resizable=0;containerType=tree;fontSize=12;swimlaneLine=0;strokeColor=none;fillColor=none;" vertex="1" parent="1">
          <mxGeometry x="150" y="200" width="560" height="190" as="geometry" />
        </mxCell>
        <mxCell id="B9pUcW5qPqLrljrNED_7-26" value="父节点" style="whiteSpace=wrap;html=1;" vertex="1" parent="B9pUcW5qPqLrljrNED_7-25">
          <mxGeometry x="230" y="40" width="100" height="40" as="geometry" />
        </mxCell>
        <mxCell id="B9pUcW5qPqLrljrNED_7-27" value="A" style="whiteSpace=wrap;html=1;glass=0;sketch=1;curveFitting=1;jiggle=2;" vertex="1" parent="B9pUcW5qPqLrljrNED_7-25">
          <mxGeometry x="20" y="130" width="100" height="40" as="geometry" />
        </mxCell>
        <mxCell id="B9pUcW5qPqLrljrNED_7-28" value="" style="edgeStyle=elbowEdgeStyle;elbow=vertical;html=1;rounded=1;curved=0;sourcePerimeterSpacing=0;targetPerimeterSpacing=0;startSize=6;endSize=6;" edge="1" parent="B9pUcW5qPqLrljrNED_7-25" source="B9pUcW5qPqLrljrNED_7-26" target="B9pUcW5qPqLrljrNED_7-27">
          <mxGeometry relative="1" as="geometry" />
        </mxCell>
        <mxCell id="B9pUcW5qPqLrljrNED_7-29" value="B" style="whiteSpace=wrap;html=1;sketch=1;curveFitting=1;jiggle=2;" vertex="1" parent="B9pUcW5qPqLrljrNED_7-25">
          <mxGeometry x="160" y="130" width="100" height="40" as="geometry" />
        </mxCell>
        <mxCell id="B9pUcW5qPqLrljrNED_7-30" value="" style="edgeStyle=elbowEdgeStyle;elbow=vertical;html=1;rounded=1;curved=0;sourcePerimeterSpacing=0;targetPerimeterSpacing=0;startSize=6;endSize=6;" edge="1" parent="B9pUcW5qPqLrljrNED_7-25" source="B9pUcW5qPqLrljrNED_7-26" target="B9pUcW5qPqLrljrNED_7-29">
          <mxGeometry relative="1" as="geometry" />
        </mxCell>
        <mxCell id="B9pUcW5qPqLrljrNED_7-31" value="" style="edgeStyle=elbowEdgeStyle;elbow=vertical;html=1;rounded=1;curved=0;sourcePerimeterSpacing=0;targetPerimeterSpacing=0;startSize=6;endSize=6;" edge="1" target="B9pUcW5qPqLrljrNED_7-32" source="B9pUcW5qPqLrljrNED_7-26" parent="B9pUcW5qPqLrljrNED_7-25">
          <mxGeometry relative="1" as="geometry">
            <mxPoint x="90" y="350" as="sourcePoint" />
          </mxGeometry>
        </mxCell>
        <mxCell id="B9pUcW5qPqLrljrNED_7-32" value="C" style="whiteSpace=wrap;html=1;sketch=1;curveFitting=1;jiggle=2;" vertex="1" parent="B9pUcW5qPqLrljrNED_7-25">
          <mxGeometry x="300" y="130" width="100" height="40" as="geometry" />
        </mxCell>
        <mxCell id="B9pUcW5qPqLrljrNED_7-33" value="" style="edgeStyle=elbowEdgeStyle;elbow=vertical;html=1;rounded=1;curved=0;sourcePerimeterSpacing=0;targetPerimeterSpacing=0;startSize=6;endSize=6;" edge="1" target="B9pUcW5qPqLrljrNED_7-34" source="B9pUcW5qPqLrljrNED_7-26" parent="B9pUcW5qPqLrljrNED_7-25">
          <mxGeometry relative="1" as="geometry">
            <mxPoint x="230" y="350" as="sourcePoint" />
          </mxGeometry>
        </mxCell>
        <mxCell id="B9pUcW5qPqLrljrNED_7-34" value="D" style="whiteSpace=wrap;html=1;sketch=1;curveFitting=1;jiggle=2;" vertex="1" parent="B9pUcW5qPqLrljrNED_7-25">
          <mxGeometry x="440" y="130" width="100" height="40" as="geometry" />
        </mxCell>
        <mxCell id="B9pUcW5qPqLrljrNED_7-39" value="" style="swimlane;startSize=20;horizontal=1;childLayout=treeLayout;horizontalTree=0;sortEdges=1;resizable=0;containerType=tree;fontSize=12;swimlaneLine=0;strokeColor=none;fillColor=none;" vertex="1" parent="1">
          <mxGeometry x="10" y="560" width="560" height="190" as="geometry" />
        </mxCell>
        <mxCell id="B9pUcW5qPqLrljrNED_7-40" value="父节点" style="whiteSpace=wrap;html=1;" vertex="1" parent="B9pUcW5qPqLrljrNED_7-39">
          <mxGeometry x="230" y="40" width="100" height="40" as="geometry" />
        </mxCell>
        <mxCell id="B9pUcW5qPqLrljrNED_7-41" value="A" style="whiteSpace=wrap;html=1;glass=0;sketch=1;curveFitting=1;jiggle=2;" vertex="1" parent="B9pUcW5qPqLrljrNED_7-39">
          <mxGeometry x="20" y="130" width="100" height="40" as="geometry" />
        </mxCell>
        <mxCell id="B9pUcW5qPqLrljrNED_7-42" value="" style="edgeStyle=elbowEdgeStyle;elbow=vertical;html=1;rounded=1;curved=0;sourcePerimeterSpacing=0;targetPerimeterSpacing=0;startSize=6;endSize=6;" edge="1" parent="B9pUcW5qPqLrljrNED_7-39" source="B9pUcW5qPqLrljrNED_7-40" target="B9pUcW5qPqLrljrNED_7-41">
          <mxGeometry relative="1" as="geometry" />
        </mxCell>
        <mxCell id="B9pUcW5qPqLrljrNED_7-43" value="B" style="whiteSpace=wrap;html=1;sketch=1;curveFitting=1;jiggle=2;" vertex="1" parent="B9pUcW5qPqLrljrNED_7-39">
          <mxGeometry x="160" y="130" width="100" height="40" as="geometry" />
        </mxCell>
        <mxCell id="B9pUcW5qPqLrljrNED_7-44" value="" style="edgeStyle=elbowEdgeStyle;elbow=vertical;html=1;rounded=1;curved=0;sourcePerimeterSpacing=0;targetPerimeterSpacing=0;startSize=6;endSize=6;" edge="1" parent="B9pUcW5qPqLrljrNED_7-39" source="B9pUcW5qPqLrljrNED_7-40" target="B9pUcW5qPqLrljrNED_7-43">
          <mxGeometry relative="1" as="geometry" />
        </mxCell>
        <mxCell id="B9pUcW5qPqLrljrNED_7-45" value="" style="edgeStyle=elbowEdgeStyle;elbow=vertical;html=1;rounded=1;curved=0;sourcePerimeterSpacing=0;targetPerimeterSpacing=0;startSize=6;endSize=6;" edge="1" parent="B9pUcW5qPqLrljrNED_7-39" source="B9pUcW5qPqLrljrNED_7-40" target="B9pUcW5qPqLrljrNED_7-46">
          <mxGeometry relative="1" as="geometry">
            <mxPoint x="90" y="350" as="sourcePoint" />
          </mxGeometry>
        </mxCell>
        <mxCell id="B9pUcW5qPqLrljrNED_7-46" value="C" style="whiteSpace=wrap;html=1;sketch=1;curveFitting=1;jiggle=2;" vertex="1" parent="B9pUcW5qPqLrljrNED_7-39">
          <mxGeometry x="300" y="130" width="100" height="40" as="geometry" />
        </mxCell>
        <mxCell id="B9pUcW5qPqLrljrNED_7-47" value="" style="edgeStyle=elbowEdgeStyle;elbow=vertical;html=1;rounded=1;curved=0;sourcePerimeterSpacing=0;targetPerimeterSpacing=0;startSize=6;endSize=6;" edge="1" parent="B9pUcW5qPqLrljrNED_7-39" source="B9pUcW5qPqLrljrNED_7-40" target="B9pUcW5qPqLrljrNED_7-48">
          <mxGeometry relative="1" as="geometry">
            <mxPoint x="230" y="350" as="sourcePoint" />
          </mxGeometry>
        </mxCell>
        <mxCell id="B9pUcW5qPqLrljrNED_7-48" value="D" style="whiteSpace=wrap;html=1;sketch=1;curveFitting=1;jiggle=2;" vertex="1" parent="B9pUcW5qPqLrljrNED_7-39">
          <mxGeometry x="440" y="130" width="100" height="40" as="geometry" />
        </mxCell>
        <mxCell id="B9pUcW5qPqLrljrNED_7-407" value="" style="edgeStyle=orthogonalEdgeStyle;rounded=0;orthogonalLoop=1;jettySize=auto;html=1;" edge="1" parent="1" source="B9pUcW5qPqLrljrNED_7-392" target="B9pUcW5qPqLrljrNED_7-397">
          <mxGeometry relative="1" as="geometry" />
        </mxCell>
        <mxCell id="B9pUcW5qPqLrljrNED_7-421" value="child" style="edgeLabel;html=1;align=center;verticalAlign=middle;resizable=0;points=[];" vertex="1" connectable="0" parent="B9pUcW5qPqLrljrNED_7-407">
          <mxGeometry x="-0.1872" relative="1" as="geometry">
            <mxPoint x="-15" y="11" as="offset" />
          </mxGeometry>
        </mxCell>
        <mxCell id="B9pUcW5qPqLrljrNED_7-392" value="父节点" style="rounded=1;whiteSpace=wrap;html=1;strokeWidth=2;fillWeight=4;hachureGap=8;hachureAngle=45;fillColor=#009900;sketch=1;fontSize=19;" vertex="1" parent="1">
          <mxGeometry x="740" y="520" width="90" height="60" as="geometry" />
        </mxCell>
        <mxCell id="B9pUcW5qPqLrljrNED_7-404" value="" style="edgeStyle=orthogonalEdgeStyle;rounded=0;orthogonalLoop=1;jettySize=auto;labelBorderColor=default;textShadow=0;align=center;" edge="1" parent="1" source="B9pUcW5qPqLrljrNED_7-397" target="B9pUcW5qPqLrljrNED_7-398">
          <mxGeometry relative="1" as="geometry" />
        </mxCell>
        <mxCell id="B9pUcW5qPqLrljrNED_7-417" value="sibling" style="edgeLabel;html=1;align=center;verticalAlign=middle;resizable=0;points=[];" vertex="1" connectable="0" parent="B9pUcW5qPqLrljrNED_7-404">
          <mxGeometry x="-0.1949" y="-5" relative="1" as="geometry">
            <mxPoint y="-15" as="offset" />
          </mxGeometry>
        </mxCell>
        <mxCell id="B9pUcW5qPqLrljrNED_7-397" value="&lt;font style=&quot;font-size: 20px;&quot;&gt;A&lt;/font&gt;" style="rounded=1;whiteSpace=wrap;html=1;strokeWidth=2;fillWeight=4;hachureGap=8;hachureAngle=45;fillColor=#1ba1e2;sketch=1;" vertex="1" parent="1">
          <mxGeometry x="740" y="700" width="90" height="60" as="geometry" />
        </mxCell>
        <mxCell id="B9pUcW5qPqLrljrNED_7-405" value="" style="edgeStyle=orthogonalEdgeStyle;rounded=0;orthogonalLoop=1;jettySize=auto;html=1;" edge="1" parent="1" source="B9pUcW5qPqLrljrNED_7-398" target="B9pUcW5qPqLrljrNED_7-399">
          <mxGeometry relative="1" as="geometry" />
        </mxCell>
        <mxCell id="B9pUcW5qPqLrljrNED_7-398" value="&lt;font style=&quot;font-size: 20px;&quot;&gt;B&lt;/font&gt;" style="rounded=1;whiteSpace=wrap;html=1;strokeWidth=2;fillWeight=4;hachureGap=8;hachureAngle=45;fillColor=#1ba1e2;sketch=1;" vertex="1" parent="1">
          <mxGeometry x="890" y="700" width="90" height="60" as="geometry" />
        </mxCell>
        <mxCell id="B9pUcW5qPqLrljrNED_7-406" value="" style="edgeStyle=orthogonalEdgeStyle;rounded=0;orthogonalLoop=1;jettySize=auto;html=1;" edge="1" parent="1" source="B9pUcW5qPqLrljrNED_7-399" target="B9pUcW5qPqLrljrNED_7-400">
          <mxGeometry relative="1" as="geometry" />
        </mxCell>
        <mxCell id="B9pUcW5qPqLrljrNED_7-399" value="&lt;font style=&quot;font-size: 20px;&quot;&gt;C&lt;/font&gt;" style="rounded=1;whiteSpace=wrap;html=1;strokeWidth=2;fillWeight=4;hachureGap=8;hachureAngle=45;fillColor=#1ba1e2;sketch=1;" vertex="1" parent="1">
          <mxGeometry x="1040" y="700" width="90" height="60" as="geometry" />
        </mxCell>
        <mxCell id="B9pUcW5qPqLrljrNED_7-400" value="&lt;font style=&quot;font-size: 20px;&quot;&gt;D&lt;/font&gt;" style="rounded=1;whiteSpace=wrap;html=1;strokeWidth=2;fillWeight=4;hachureGap=8;hachureAngle=45;fillColor=#1ba1e2;sketch=1;" vertex="1" parent="1">
          <mxGeometry x="1190" y="700" width="90" height="60" as="geometry" />
        </mxCell>
        <mxCell id="B9pUcW5qPqLrljrNED_7-408" value="" style="edgeStyle=none;orthogonalLoop=1;jettySize=auto;html=1;rounded=0;" edge="1" parent="1">
          <mxGeometry width="80" relative="1" as="geometry">
            <mxPoint x="750" y="760" as="sourcePoint" />
            <mxPoint x="830" y="760" as="targetPoint" />
            <Array as="points" />
          </mxGeometry>
        </mxCell>
        <mxCell id="B9pUcW5qPqLrljrNED_7-409" value="" style="endArrow=classic;dashed=1;html=1;rounded=0;entryX=0.75;entryY=1;entryDx=0;entryDy=0;exitX=0.75;exitY=0;exitDx=0;exitDy=0;endFill=1;strokeColor=#FF3399;" edge="1" parent="1" source="B9pUcW5qPqLrljrNED_7-397" target="B9pUcW5qPqLrljrNED_7-392">
          <mxGeometry width="50" height="50" relative="1" as="geometry">
            <mxPoint x="800" y="650" as="sourcePoint" />
            <mxPoint x="850" y="600" as="targetPoint" />
          </mxGeometry>
        </mxCell>
        <mxCell id="B9pUcW5qPqLrljrNED_7-410" value="return" style="edgeLabel;html=1;align=center;verticalAlign=middle;resizable=0;points=[];" vertex="1" connectable="0" parent="B9pUcW5qPqLrljrNED_7-409">
          <mxGeometry x="0.2923" y="2" relative="1" as="geometry">
            <mxPoint x="5" y="17" as="offset" />
          </mxGeometry>
        </mxCell>
        <mxCell id="B9pUcW5qPqLrljrNED_7-411" value="" style="endArrow=classic;dashed=1;html=1;rounded=0;exitX=0.5;exitY=0;exitDx=0;exitDy=0;entryX=1;entryY=1;entryDx=0;entryDy=0;endFill=1;strokeColor=#FF3399;" edge="1" parent="1" source="B9pUcW5qPqLrljrNED_7-398" target="B9pUcW5qPqLrljrNED_7-392">
          <mxGeometry width="50" height="50" relative="1" as="geometry">
            <mxPoint x="880" y="650" as="sourcePoint" />
            <mxPoint x="930" y="600" as="targetPoint" />
          </mxGeometry>
        </mxCell>
        <mxCell id="B9pUcW5qPqLrljrNED_7-414" value="return" style="edgeLabel;html=1;align=center;verticalAlign=middle;resizable=0;points=[];" vertex="1" connectable="0" parent="B9pUcW5qPqLrljrNED_7-411">
          <mxGeometry x="0.037" relative="1" as="geometry">
            <mxPoint y="1" as="offset" />
          </mxGeometry>
        </mxCell>
        <mxCell id="B9pUcW5qPqLrljrNED_7-412" value="" style="endArrow=classic;dashed=1;html=1;rounded=0;exitX=0.5;exitY=0;exitDx=0;exitDy=0;endFill=1;strokeColor=#FF3399;" edge="1" parent="1" source="B9pUcW5qPqLrljrNED_7-399">
          <mxGeometry width="50" height="50" relative="1" as="geometry">
            <mxPoint x="1020" y="640" as="sourcePoint" />
            <mxPoint x="840" y="570" as="targetPoint" />
          </mxGeometry>
        </mxCell>
        <mxCell id="B9pUcW5qPqLrljrNED_7-415" value="return" style="edgeLabel;html=1;align=center;verticalAlign=middle;resizable=0;points=[];" vertex="1" connectable="0" parent="B9pUcW5qPqLrljrNED_7-412">
          <mxGeometry x="-0.1675" y="-3" relative="1" as="geometry">
            <mxPoint as="offset" />
          </mxGeometry>
        </mxCell>
        <mxCell id="B9pUcW5qPqLrljrNED_7-413" value="" style="endArrow=classic;dashed=1;html=1;rounded=0;exitX=0.5;exitY=0;exitDx=0;exitDy=0;endFill=1;strokeColor=#FF3399;" edge="1" parent="1" source="B9pUcW5qPqLrljrNED_7-400">
          <mxGeometry width="50" height="50" relative="1" as="geometry">
            <mxPoint x="1210" y="690" as="sourcePoint" />
            <mxPoint x="840" y="560" as="targetPoint" />
          </mxGeometry>
        </mxCell>
        <mxCell id="B9pUcW5qPqLrljrNED_7-416" value="return" style="edgeLabel;html=1;align=center;verticalAlign=middle;resizable=0;points=[];" vertex="1" connectable="0" parent="B9pUcW5qPqLrljrNED_7-413">
          <mxGeometry x="-0.1751" relative="1" as="geometry">
            <mxPoint as="offset" />
          </mxGeometry>
        </mxCell>
        <mxCell id="B9pUcW5qPqLrljrNED_7-418" value="&lt;span style=&quot;font-size: 11px; background-color: rgb(255, 255, 255);&quot;&gt;sibling&lt;/span&gt;" style="text;html=1;align=center;verticalAlign=middle;resizable=0;points=[];autosize=1;strokeColor=none;fillColor=none;" vertex="1" parent="1">
          <mxGeometry x="990" y="708" width="50" height="30" as="geometry" />
        </mxCell>
        <mxCell id="B9pUcW5qPqLrljrNED_7-419" value="&lt;span style=&quot;font-size: 11px; background-color: rgb(255, 255, 255);&quot;&gt;sibling&lt;/span&gt;" style="text;html=1;align=center;verticalAlign=middle;resizable=0;points=[];autosize=1;strokeColor=none;fillColor=none;" vertex="1" parent="1">
          <mxGeometry x="1135" y="708" width="50" height="30" as="geometry" />
        </mxCell>
        <mxCell id="B9pUcW5qPqLrljrNED_7-422" value="" style="endArrow=classic;html=1;rounded=0;labelBorderColor=default;strokeColor=#FFC44F;shape=flexArrow;strokeWidth=0;fillColor=#FFC44F;" edge="1" parent="1">
          <mxGeometry width="50" height="50" relative="1" as="geometry">
            <mxPoint x="590" y="675" as="sourcePoint" />
            <mxPoint x="690" y="675" as="targetPoint" />
          </mxGeometry>
        </mxCell>
        <mxCell id="B9pUcW5qPqLrljrNED_7-423" value="Reconcile" style="text;html=1;align=center;verticalAlign=middle;resizable=0;points=[];autosize=1;strokeColor=none;fillColor=none;fontColor=#FFC44F;fontSize=17;" vertex="1" parent="1">
          <mxGeometry x="590" y="630" width="100" height="30" as="geometry" />
        </mxCell>
        <mxCell id="B9pUcW5qPqLrljrNED_7-424" value="创建Fiber" style="text;html=1;align=center;verticalAlign=middle;resizable=0;points=[];autosize=1;strokeColor=none;fillColor=none;fontSize=27;" vertex="1" parent="1">
          <mxGeometry x="505" y="500" width="140" height="50" as="geometry" />
        </mxCell>
        <mxCell id="B9pUcW5qPqLrljrNED_7-425" value="A" style="ellipse;whiteSpace=wrap;html=1;aspect=fixed;fontSize=26;fillColor=#00CC00;" vertex="1" parent="1">
          <mxGeometry x="240" y="868" width="60" height="60" as="geometry" />
        </mxCell>
        <mxCell id="B9pUcW5qPqLrljrNED_7-426" value="H" style="ellipse;whiteSpace=wrap;html=1;aspect=fixed;fontSize=26;fillColor=#00CC00;" vertex="1" parent="1">
          <mxGeometry x="320" y="1308" width="60" height="60" as="geometry" />
        </mxCell>
        <mxCell id="B9pUcW5qPqLrljrNED_7-427" value="C" style="ellipse;whiteSpace=wrap;html=1;aspect=fixed;fontSize=26;fillColor=#00CC00;" vertex="1" parent="1">
          <mxGeometry x="240" y="988" width="60" height="60" as="geometry" />
        </mxCell>
        <mxCell id="B9pUcW5qPqLrljrNED_7-428" value="D" style="ellipse;whiteSpace=wrap;html=1;aspect=fixed;fontSize=26;fillColor=#00CC00;" vertex="1" parent="1">
          <mxGeometry x="390" y="988" width="60" height="60" as="geometry" />
        </mxCell>
        <mxCell id="B9pUcW5qPqLrljrNED_7-429" value="B" style="ellipse;whiteSpace=wrap;html=1;aspect=fixed;fontSize=26;fillColor=#00CC00;" vertex="1" parent="1">
          <mxGeometry x="80" y="988" width="60" height="60" as="geometry" />
        </mxCell>
        <mxCell id="B9pUcW5qPqLrljrNED_7-430" value="E" style="ellipse;whiteSpace=wrap;html=1;aspect=fixed;fontSize=26;fillColor=#00CC00;" vertex="1" parent="1">
          <mxGeometry x="160" y="1148" width="60" height="60" as="geometry" />
        </mxCell>
        <mxCell id="B9pUcW5qPqLrljrNED_7-431" value="G" style="ellipse;whiteSpace=wrap;html=1;aspect=fixed;fontSize=26;fillColor=#00CC00;" vertex="1" parent="1">
          <mxGeometry x="160" y="1308" width="60" height="60" as="geometry" />
        </mxCell>
        <mxCell id="B9pUcW5qPqLrljrNED_7-432" value="F" style="ellipse;whiteSpace=wrap;html=1;aspect=fixed;fontSize=26;fillColor=#00CC00;" vertex="1" parent="1">
          <mxGeometry x="320" y="1148" width="60" height="60" as="geometry" />
        </mxCell>
        <mxCell id="B9pUcW5qPqLrljrNED_7-436" value="" style="endArrow=none;html=1;rounded=0;" edge="1" parent="1">
          <mxGeometry width="50" height="50" relative="1" as="geometry">
            <mxPoint x="130" y="998" as="sourcePoint" />
            <mxPoint x="270" y="928" as="targetPoint" />
          </mxGeometry>
        </mxCell>
        <mxCell id="B9pUcW5qPqLrljrNED_7-437" value="" style="endArrow=none;html=1;rounded=0;entryX=0.5;entryY=1;entryDx=0;entryDy=0;exitX=0.5;exitY=0;exitDx=0;exitDy=0;" edge="1" parent="1" source="B9pUcW5qPqLrljrNED_7-427" target="B9pUcW5qPqLrljrNED_7-425">
          <mxGeometry width="50" height="50" relative="1" as="geometry">
            <mxPoint x="140" y="1008" as="sourcePoint" />
            <mxPoint x="280" y="938" as="targetPoint" />
          </mxGeometry>
        </mxCell>
        <mxCell id="B9pUcW5qPqLrljrNED_7-438" value="" style="endArrow=none;html=1;rounded=0;exitX=0.5;exitY=0;exitDx=0;exitDy=0;" edge="1" parent="1" source="B9pUcW5qPqLrljrNED_7-428">
          <mxGeometry width="50" height="50" relative="1" as="geometry">
            <mxPoint x="140" y="1008" as="sourcePoint" />
            <mxPoint x="270" y="928" as="targetPoint" />
          </mxGeometry>
        </mxCell>
        <mxCell id="B9pUcW5qPqLrljrNED_7-439" value="" style="endArrow=none;html=1;rounded=0;exitX=0.5;exitY=0;exitDx=0;exitDy=0;" edge="1" parent="1" source="B9pUcW5qPqLrljrNED_7-430">
          <mxGeometry width="50" height="50" relative="1" as="geometry">
            <mxPoint x="200" y="1128" as="sourcePoint" />
            <mxPoint x="270" y="1048" as="targetPoint" />
          </mxGeometry>
        </mxCell>
        <mxCell id="B9pUcW5qPqLrljrNED_7-440" value="" style="endArrow=none;html=1;rounded=0;entryX=0.5;entryY=1;entryDx=0;entryDy=0;exitX=0.5;exitY=0;exitDx=0;exitDy=0;" edge="1" parent="1" source="B9pUcW5qPqLrljrNED_7-432" target="B9pUcW5qPqLrljrNED_7-427">
          <mxGeometry width="50" height="50" relative="1" as="geometry">
            <mxPoint x="330" y="1138" as="sourcePoint" />
            <mxPoint x="380" y="1088" as="targetPoint" />
          </mxGeometry>
        </mxCell>
        <mxCell id="B9pUcW5qPqLrljrNED_7-441" value="" style="endArrow=none;html=1;rounded=0;entryX=0.5;entryY=1;entryDx=0;entryDy=0;exitX=0.5;exitY=0;exitDx=0;exitDy=0;" edge="1" parent="1" source="B9pUcW5qPqLrljrNED_7-431" target="B9pUcW5qPqLrljrNED_7-430">
          <mxGeometry width="50" height="50" relative="1" as="geometry">
            <mxPoint x="160" y="1288" as="sourcePoint" />
            <mxPoint x="210" y="1238" as="targetPoint" />
          </mxGeometry>
        </mxCell>
        <mxCell id="B9pUcW5qPqLrljrNED_7-442" value="" style="endArrow=none;html=1;rounded=0;entryX=0.5;entryY=1;entryDx=0;entryDy=0;exitX=0.5;exitY=0;exitDx=0;exitDy=0;" edge="1" parent="1" source="B9pUcW5qPqLrljrNED_7-426" target="B9pUcW5qPqLrljrNED_7-432">
          <mxGeometry width="50" height="50" relative="1" as="geometry">
            <mxPoint x="340" y="1298" as="sourcePoint" />
            <mxPoint x="390" y="1248" as="targetPoint" />
          </mxGeometry>
        </mxCell>
        <mxCell id="B9pUcW5qPqLrljrNED_7-452" style="edgeStyle=orthogonalEdgeStyle;rounded=0;orthogonalLoop=1;jettySize=auto;html=1;exitX=0.5;exitY=1;exitDx=0;exitDy=0;" edge="1" parent="1" source="B9pUcW5qPqLrljrNED_7-444" target="B9pUcW5qPqLrljrNED_7-445">
          <mxGeometry relative="1" as="geometry" />
        </mxCell>
        <mxCell id="B9pUcW5qPqLrljrNED_7-459" value="child" style="edgeLabel;html=1;align=center;verticalAlign=middle;resizable=0;points=[];fontSize=21;" vertex="1" connectable="0" parent="B9pUcW5qPqLrljrNED_7-452">
          <mxGeometry x="-0.1972" y="-3" relative="1" as="geometry">
            <mxPoint x="-27" y="5" as="offset" />
          </mxGeometry>
        </mxCell>
        <mxCell id="B9pUcW5qPqLrljrNED_7-444" value="A" style="ellipse;whiteSpace=wrap;html=1;aspect=fixed;fontSize=26;fillColor=#FFCCCC;" vertex="1" parent="1">
          <mxGeometry x="810" y="840" width="60" height="60" as="geometry" />
        </mxCell>
        <mxCell id="B9pUcW5qPqLrljrNED_7-453" style="edgeStyle=orthogonalEdgeStyle;rounded=0;orthogonalLoop=1;jettySize=auto;html=1;exitX=1;exitY=0.5;exitDx=0;exitDy=0;entryX=0;entryY=0.5;entryDx=0;entryDy=0;" edge="1" parent="1" source="B9pUcW5qPqLrljrNED_7-445" target="B9pUcW5qPqLrljrNED_7-446">
          <mxGeometry relative="1" as="geometry" />
        </mxCell>
        <mxCell id="B9pUcW5qPqLrljrNED_7-445" value="B" style="ellipse;whiteSpace=wrap;html=1;aspect=fixed;fontSize=26;fillColor=#FFCCCC;" vertex="1" parent="1">
          <mxGeometry x="810" y="1010" width="60" height="60" as="geometry" />
        </mxCell>
        <mxCell id="B9pUcW5qPqLrljrNED_7-454" style="edgeStyle=orthogonalEdgeStyle;rounded=0;orthogonalLoop=1;jettySize=auto;html=1;exitX=1;exitY=0.5;exitDx=0;exitDy=0;entryX=0;entryY=0.5;entryDx=0;entryDy=0;" edge="1" parent="1" source="B9pUcW5qPqLrljrNED_7-446" target="B9pUcW5qPqLrljrNED_7-449">
          <mxGeometry relative="1" as="geometry" />
        </mxCell>
        <mxCell id="B9pUcW5qPqLrljrNED_7-455" style="edgeStyle=orthogonalEdgeStyle;rounded=0;orthogonalLoop=1;jettySize=auto;html=1;exitX=0.5;exitY=1;exitDx=0;exitDy=0;entryX=0.5;entryY=0;entryDx=0;entryDy=0;" edge="1" parent="1" source="B9pUcW5qPqLrljrNED_7-446" target="B9pUcW5qPqLrljrNED_7-447">
          <mxGeometry relative="1" as="geometry" />
        </mxCell>
        <mxCell id="B9pUcW5qPqLrljrNED_7-446" value="C" style="ellipse;whiteSpace=wrap;html=1;aspect=fixed;fontSize=26;fillColor=#FFCCCC;" vertex="1" parent="1">
          <mxGeometry x="970" y="1010" width="60" height="60" as="geometry" />
        </mxCell>
        <mxCell id="B9pUcW5qPqLrljrNED_7-456" style="edgeStyle=orthogonalEdgeStyle;rounded=0;orthogonalLoop=1;jettySize=auto;html=1;exitX=0.5;exitY=1;exitDx=0;exitDy=0;entryX=0.5;entryY=0;entryDx=0;entryDy=0;" edge="1" parent="1" source="B9pUcW5qPqLrljrNED_7-447" target="B9pUcW5qPqLrljrNED_7-448">
          <mxGeometry relative="1" as="geometry" />
        </mxCell>
        <mxCell id="B9pUcW5qPqLrljrNED_7-457" value="" style="edgeStyle=orthogonalEdgeStyle;rounded=0;orthogonalLoop=1;jettySize=auto;html=1;" edge="1" parent="1" source="B9pUcW5qPqLrljrNED_7-447" target="B9pUcW5qPqLrljrNED_7-451">
          <mxGeometry relative="1" as="geometry" />
        </mxCell>
        <mxCell id="B9pUcW5qPqLrljrNED_7-447" value="E" style="ellipse;whiteSpace=wrap;html=1;aspect=fixed;fontSize=26;fillColor=#FFCCCC;" vertex="1" parent="1">
          <mxGeometry x="970" y="1170" width="60" height="60" as="geometry" />
        </mxCell>
        <mxCell id="B9pUcW5qPqLrljrNED_7-448" value="G" style="ellipse;whiteSpace=wrap;html=1;aspect=fixed;fontSize=26;fillColor=#FFCCCC;" vertex="1" parent="1">
          <mxGeometry x="970" y="1330" width="60" height="60" as="geometry" />
        </mxCell>
        <mxCell id="B9pUcW5qPqLrljrNED_7-449" value="D" style="ellipse;whiteSpace=wrap;html=1;aspect=fixed;fontSize=26;fillColor=#FFCCCC;" vertex="1" parent="1">
          <mxGeometry x="1130" y="1010" width="60" height="60" as="geometry" />
        </mxCell>
        <mxCell id="B9pUcW5qPqLrljrNED_7-450" value="H" style="ellipse;whiteSpace=wrap;html=1;aspect=fixed;fontSize=26;fillColor=#FFCCCC;" vertex="1" parent="1">
          <mxGeometry x="1130" y="1330" width="60" height="60" as="geometry" />
        </mxCell>
        <mxCell id="B9pUcW5qPqLrljrNED_7-458" style="edgeStyle=orthogonalEdgeStyle;rounded=0;orthogonalLoop=1;jettySize=auto;html=1;exitX=0.5;exitY=1;exitDx=0;exitDy=0;entryX=0.5;entryY=0;entryDx=0;entryDy=0;" edge="1" parent="1" source="B9pUcW5qPqLrljrNED_7-451" target="B9pUcW5qPqLrljrNED_7-450">
          <mxGeometry relative="1" as="geometry" />
        </mxCell>
        <mxCell id="B9pUcW5qPqLrljrNED_7-451" value="F" style="ellipse;whiteSpace=wrap;html=1;aspect=fixed;fontSize=26;fillColor=#FFCCCC;" vertex="1" parent="1">
          <mxGeometry x="1130" y="1170" width="60" height="60" as="geometry" />
        </mxCell>
        <mxCell id="B9pUcW5qPqLrljrNED_7-460" value="child" style="edgeLabel;html=1;align=center;verticalAlign=middle;resizable=0;points=[];fontSize=21;" vertex="1" connectable="0" parent="1">
          <mxGeometry x="970" y="1109.9953846153844" as="geometry" />
        </mxCell>
        <mxCell id="B9pUcW5qPqLrljrNED_7-461" value="child" style="edgeLabel;html=1;align=center;verticalAlign=middle;resizable=0;points=[];fontSize=21;" vertex="1" connectable="0" parent="1">
          <mxGeometry x="960" y="1279.9953846153844" as="geometry" />
        </mxCell>
        <mxCell id="B9pUcW5qPqLrljrNED_7-462" value="child" style="edgeLabel;html=1;align=center;verticalAlign=middle;resizable=0;points=[];fontSize=21;" vertex="1" connectable="0" parent="1">
          <mxGeometry x="1130" y="1279.9953846153844" as="geometry" />
        </mxCell>
        <mxCell id="B9pUcW5qPqLrljrNED_7-463" value="sibling" style="text;html=1;align=center;verticalAlign=middle;resizable=0;points=[];autosize=1;strokeColor=none;fillColor=none;fontSize=17;" vertex="1" parent="1">
          <mxGeometry x="875" y="1008" width="70" height="30" as="geometry" />
        </mxCell>
        <mxCell id="B9pUcW5qPqLrljrNED_7-464" value="&lt;span style=&quot;color: rgb(0, 0, 0); font-family: Helvetica; font-size: 17px; font-style: normal; font-variant-ligatures: normal; font-variant-caps: normal; font-weight: 400; letter-spacing: normal; orphans: 2; text-align: center; text-indent: 0px; text-transform: none; widows: 2; word-spacing: 0px; -webkit-text-stroke-width: 0px; white-space: nowrap; background-color: rgb(251, 251, 251); text-decoration-thickness: initial; text-decoration-style: initial; text-decoration-color: initial; float: none; display: inline !important;&quot;&gt;sibling&lt;/span&gt;" style="text;whiteSpace=wrap;html=1;fontSize=17;" vertex="1" parent="1">
          <mxGeometry x="1045" y="1010" width="80" height="40" as="geometry" />
        </mxCell>
        <mxCell id="B9pUcW5qPqLrljrNED_7-465" value="&lt;span style=&quot;color: rgb(0, 0, 0); font-family: Helvetica; font-size: 17px; font-style: normal; font-variant-ligatures: normal; font-variant-caps: normal; font-weight: 400; letter-spacing: normal; orphans: 2; text-align: center; text-indent: 0px; text-transform: none; widows: 2; word-spacing: 0px; -webkit-text-stroke-width: 0px; white-space: nowrap; background-color: rgb(251, 251, 251); text-decoration-thickness: initial; text-decoration-style: initial; text-decoration-color: initial; float: none; display: inline !important;&quot;&gt;sibling&lt;/span&gt;" style="text;whiteSpace=wrap;html=1;fontSize=17;" vertex="1" parent="1">
          <mxGeometry x="1045" y="1170" width="80" height="40" as="geometry" />
        </mxCell>
        <mxCell id="B9pUcW5qPqLrljrNED_7-467" value="" style="endArrow=classic;dashed=1;html=1;rounded=0;endFill=0;entryX=1;entryY=1;entryDx=0;entryDy=0;strokeColor=#fa0505;" edge="1" parent="1">
          <mxGeometry width="50" height="50" relative="1" as="geometry">
            <mxPoint x="861" y="1008" as="sourcePoint" />
            <mxPoint x="861.2132034355964" y="899.2132034355964" as="targetPoint" />
            <Array as="points" />
          </mxGeometry>
        </mxCell>
        <mxCell id="B9pUcW5qPqLrljrNED_7-468" value="return" style="text;html=1;align=center;verticalAlign=middle;resizable=0;points=[];autosize=1;strokeColor=none;fillColor=none;fontSize=16;fontColor=#ed0202;" vertex="1" parent="1">
          <mxGeometry x="860" y="940" width="70" height="30" as="geometry" />
        </mxCell>
        <mxCell id="B9pUcW5qPqLrljrNED_7-469" value="return" style="text;html=1;align=center;verticalAlign=middle;resizable=0;points=[];autosize=1;strokeColor=none;fillColor=none;fontSize=16;fontColor=#ed0202;" vertex="1" parent="1">
          <mxGeometry x="1185" y="1265" width="70" height="30" as="geometry" />
        </mxCell>
        <mxCell id="B9pUcW5qPqLrljrNED_7-470" value="return" style="text;html=1;align=center;verticalAlign=middle;resizable=0;points=[];autosize=1;strokeColor=none;fillColor=none;fontSize=16;fontColor=#ed0202;" vertex="1" parent="1">
          <mxGeometry x="1090" y="1095" width="70" height="30" as="geometry" />
        </mxCell>
        <mxCell id="B9pUcW5qPqLrljrNED_7-471" value="return" style="text;html=1;align=center;verticalAlign=middle;resizable=0;points=[];autosize=1;strokeColor=none;fillColor=none;fontSize=16;fontColor=#ed0202;" vertex="1" parent="1">
          <mxGeometry x="1010" y="1265" width="70" height="30" as="geometry" />
        </mxCell>
        <mxCell id="B9pUcW5qPqLrljrNED_7-472" value="return" style="text;html=1;align=center;verticalAlign=middle;resizable=0;points=[];autosize=1;strokeColor=none;fillColor=none;fontSize=16;fontColor=#ed0202;" vertex="1" parent="1">
          <mxGeometry x="1005" y="1120" width="70" height="30" as="geometry" />
        </mxCell>
        <mxCell id="B9pUcW5qPqLrljrNED_7-473" value="return" style="text;html=1;align=center;verticalAlign=middle;resizable=0;points=[];autosize=1;strokeColor=none;fillColor=none;fontSize=16;fontColor=#ed0202;" vertex="1" parent="1">
          <mxGeometry x="935" y="940" width="70" height="30" as="geometry" />
        </mxCell>
        <mxCell id="B9pUcW5qPqLrljrNED_7-474" value="return" style="text;html=1;align=center;verticalAlign=middle;resizable=0;points=[];autosize=1;strokeColor=none;fillColor=none;fontSize=16;fontColor=#ed0202;" vertex="1" parent="1">
          <mxGeometry x="1000" y="905" width="70" height="30" as="geometry" />
        </mxCell>
        <mxCell id="B9pUcW5qPqLrljrNED_7-475" value="" style="endArrow=classic;dashed=1;html=1;rounded=0;endFill=0;strokeColor=#fa0505;exitX=0.314;exitY=0.005;exitDx=0;exitDy=0;exitPerimeter=0;" edge="1" parent="1" source="B9pUcW5qPqLrljrNED_7-451">
          <mxGeometry width="50" height="50" relative="1" as="geometry">
            <mxPoint x="1125" y="1170" as="sourcePoint" />
            <mxPoint x="1040" y="1070" as="targetPoint" />
            <Array as="points" />
          </mxGeometry>
        </mxCell>
        <mxCell id="B9pUcW5qPqLrljrNED_7-476" value="" style="endArrow=classic;dashed=1;html=1;rounded=0;endFill=0;entryX=1;entryY=1;entryDx=0;entryDy=0;strokeColor=#fa0505;" edge="1" parent="1">
          <mxGeometry width="50" height="50" relative="1" as="geometry">
            <mxPoint x="1185" y="1338.79" as="sourcePoint" />
            <mxPoint x="1185.2132034355964" y="1230.0032034355963" as="targetPoint" />
            <Array as="points" />
          </mxGeometry>
        </mxCell>
        <mxCell id="B9pUcW5qPqLrljrNED_7-477" value="" style="endArrow=classic;dashed=1;html=1;rounded=0;endFill=0;entryX=1;entryY=1;entryDx=0;entryDy=0;strokeColor=#fa0505;" edge="1" parent="1">
          <mxGeometry width="50" height="50" relative="1" as="geometry">
            <mxPoint x="1020" y="1334.39" as="sourcePoint" />
            <mxPoint x="1020.2132034355964" y="1225.6032034355965" as="targetPoint" />
            <Array as="points" />
          </mxGeometry>
        </mxCell>
        <mxCell id="B9pUcW5qPqLrljrNED_7-478" value="" style="endArrow=classic;dashed=1;html=1;rounded=0;endFill=0;entryX=1;entryY=1;entryDx=0;entryDy=0;strokeColor=#fa0505;" edge="1" parent="1">
          <mxGeometry width="50" height="50" relative="1" as="geometry">
            <mxPoint x="1020" y="1178.79" as="sourcePoint" />
            <mxPoint x="1020.2132034355964" y="1070.0032034355963" as="targetPoint" />
            <Array as="points" />
          </mxGeometry>
        </mxCell>
        <mxCell id="B9pUcW5qPqLrljrNED_7-479" value="" style="endArrow=classic;dashed=1;html=1;rounded=0;endFill=0;strokeColor=#fa0505;" edge="1" parent="1">
          <mxGeometry width="50" height="50" relative="1" as="geometry">
            <mxPoint x="1160" y="1008" as="sourcePoint" />
            <mxPoint x="880" y="870" as="targetPoint" />
            <Array as="points" />
          </mxGeometry>
        </mxCell>
        <mxCell id="B9pUcW5qPqLrljrNED_7-480" value="" style="endArrow=classic;dashed=1;html=1;rounded=0;endFill=0;strokeColor=#fa0505;entryX=1.058;entryY=0.787;entryDx=0;entryDy=0;entryPerimeter=0;" edge="1" parent="1" target="B9pUcW5qPqLrljrNED_7-444">
          <mxGeometry width="50" height="50" relative="1" as="geometry">
            <mxPoint x="999.23" y="1008" as="sourcePoint" />
            <mxPoint x="999" y="899" as="targetPoint" />
            <Array as="points" />
          </mxGeometry>
        </mxCell>
        <mxCell id="B9pUcW5qPqLrljrNED_7-481" value="" style="shape=flexArrow;endArrow=classic;html=1;rounded=0;strokeColor=#0d09f6;" edge="1" parent="1">
          <mxGeometry width="50" height="50" relative="1" as="geometry">
            <mxPoint x="575" y="1168.46" as="sourcePoint" />
            <mxPoint x="705" y="1168.46" as="targetPoint" />
          </mxGeometry>
        </mxCell>
        <mxCell id="B9pUcW5qPqLrljrNED_7-482" value="&lt;font color=&quot;#000000&quot;&gt;Reconcile&lt;/font&gt;" style="text;html=1;align=center;verticalAlign=middle;resizable=0;points=[];autosize=1;strokeColor=none;fillColor=none;fontSize=21;fontColor=#3399FF;" vertex="1" parent="1">
          <mxGeometry x="570" y="1095" width="120" height="40" as="geometry" />
        </mxCell>
        <mxCell id="B9pUcW5qPqLrljrNED_7-483" value="&lt;font style=&quot;font-size: 27px;&quot;&gt;创建Fiber&lt;/font&gt;" style="text;html=1;align=center;verticalAlign=middle;resizable=0;points=[];autosize=1;strokeColor=none;fillColor=none;fontSize=34;" vertex="1" parent="1">
          <mxGeometry x="920" y="1420" width="140" height="50" as="geometry" />
        </mxCell>
        <mxCell id="B9pUcW5qPqLrljrNED_7-484" value="&lt;font style=&quot;font-size: 27px;&quot;&gt;创建虚拟dom结构&lt;/font&gt;" style="text;html=1;align=center;verticalAlign=middle;resizable=0;points=[];autosize=1;strokeColor=none;fillColor=none;" vertex="1" parent="1">
          <mxGeometry x="130" y="1420" width="240" height="50" as="geometry" />
        </mxCell>
        <mxCell id="B9pUcW5qPqLrljrNED_7-485" value="A" style="ellipse;whiteSpace=wrap;html=1;aspect=fixed;fontSize=26;fillColor=#B3FF66;" vertex="1" parent="1">
          <mxGeometry x="228" y="1670" width="60" height="60" as="geometry" />
        </mxCell>
        <mxCell id="B9pUcW5qPqLrljrNED_7-486" value="H" style="ellipse;whiteSpace=wrap;html=1;aspect=fixed;fontSize=26;fillColor=#B3FF66;" vertex="1" parent="1">
          <mxGeometry x="308" y="2110" width="60" height="60" as="geometry" />
        </mxCell>
        <mxCell id="B9pUcW5qPqLrljrNED_7-487" value="C" style="ellipse;whiteSpace=wrap;html=1;aspect=fixed;fontSize=26;fillColor=#B3FF66;" vertex="1" parent="1">
          <mxGeometry x="228" y="1790" width="60" height="60" as="geometry" />
        </mxCell>
        <mxCell id="B9pUcW5qPqLrljrNED_7-488" value="M" style="ellipse;whiteSpace=wrap;html=1;aspect=fixed;fontSize=26;fillColor=#009900;" vertex="1" parent="1">
          <mxGeometry x="378" y="1790" width="60" height="60" as="geometry" />
        </mxCell>
        <mxCell id="B9pUcW5qPqLrljrNED_7-489" value="B" style="ellipse;whiteSpace=wrap;html=1;aspect=fixed;fontSize=26;fillColor=#B3FF66;" vertex="1" parent="1">
          <mxGeometry x="68" y="1790" width="60" height="60" as="geometry" />
        </mxCell>
        <mxCell id="B9pUcW5qPqLrljrNED_7-490" value="D" style="ellipse;whiteSpace=wrap;html=1;aspect=fixed;fontSize=26;fillColor=#009900;" vertex="1" parent="1">
          <mxGeometry x="148" y="1950" width="60" height="60" as="geometry" />
        </mxCell>
        <mxCell id="B9pUcW5qPqLrljrNED_7-492" value="F" style="ellipse;whiteSpace=wrap;html=1;aspect=fixed;fontSize=26;fillColor=#B3FF66;" vertex="1" parent="1">
          <mxGeometry x="308" y="1950" width="60" height="60" as="geometry" />
        </mxCell>
        <mxCell id="B9pUcW5qPqLrljrNED_7-493" value="" style="endArrow=none;html=1;rounded=0;" edge="1" parent="1">
          <mxGeometry width="50" height="50" relative="1" as="geometry">
            <mxPoint x="118" y="1800" as="sourcePoint" />
            <mxPoint x="258" y="1730" as="targetPoint" />
          </mxGeometry>
        </mxCell>
        <mxCell id="B9pUcW5qPqLrljrNED_7-494" value="" style="endArrow=none;html=1;rounded=0;entryX=0.5;entryY=1;entryDx=0;entryDy=0;exitX=0.5;exitY=0;exitDx=0;exitDy=0;" edge="1" parent="1" source="B9pUcW5qPqLrljrNED_7-487" target="B9pUcW5qPqLrljrNED_7-485">
          <mxGeometry width="50" height="50" relative="1" as="geometry">
            <mxPoint x="128" y="1810" as="sourcePoint" />
            <mxPoint x="268" y="1740" as="targetPoint" />
          </mxGeometry>
        </mxCell>
        <mxCell id="B9pUcW5qPqLrljrNED_7-495" value="" style="endArrow=none;html=1;rounded=0;exitX=0;exitY=0;exitDx=0;exitDy=0;" edge="1" parent="1" source="B9pUcW5qPqLrljrNED_7-488">
          <mxGeometry width="50" height="50" relative="1" as="geometry">
            <mxPoint x="128" y="1810" as="sourcePoint" />
            <mxPoint x="258" y="1730" as="targetPoint" />
          </mxGeometry>
        </mxCell>
        <mxCell id="B9pUcW5qPqLrljrNED_7-496" value="" style="endArrow=none;html=1;rounded=0;exitX=0.5;exitY=0;exitDx=0;exitDy=0;" edge="1" parent="1" source="B9pUcW5qPqLrljrNED_7-490">
          <mxGeometry width="50" height="50" relative="1" as="geometry">
            <mxPoint x="188" y="1930" as="sourcePoint" />
            <mxPoint x="258" y="1850" as="targetPoint" />
          </mxGeometry>
        </mxCell>
        <mxCell id="B9pUcW5qPqLrljrNED_7-497" value="" style="endArrow=none;html=1;rounded=0;entryX=0.5;entryY=1;entryDx=0;entryDy=0;exitX=0.5;exitY=0;exitDx=0;exitDy=0;" edge="1" parent="1" source="B9pUcW5qPqLrljrNED_7-492" target="B9pUcW5qPqLrljrNED_7-487">
          <mxGeometry width="50" height="50" relative="1" as="geometry">
            <mxPoint x="318" y="1940" as="sourcePoint" />
            <mxPoint x="368" y="1890" as="targetPoint" />
          </mxGeometry>
        </mxCell>
        <mxCell id="B9pUcW5qPqLrljrNED_7-499" value="" style="endArrow=none;html=1;rounded=0;entryX=0.5;entryY=1;entryDx=0;entryDy=0;exitX=0.5;exitY=0;exitDx=0;exitDy=0;" edge="1" parent="1" source="B9pUcW5qPqLrljrNED_7-486" target="B9pUcW5qPqLrljrNED_7-492">
          <mxGeometry width="50" height="50" relative="1" as="geometry">
            <mxPoint x="328" y="2100" as="sourcePoint" />
            <mxPoint x="378" y="2050" as="targetPoint" />
          </mxGeometry>
        </mxCell>
        <mxCell id="B9pUcW5qPqLrljrNED_7-500" value="更新虚拟DOM" style="text;html=1;align=center;verticalAlign=middle;resizable=0;points=[];autosize=1;strokeColor=none;fillColor=none;fontSize=27;" vertex="1" parent="1">
          <mxGeometry x="146" y="2332" width="190" height="50" as="geometry" />
        </mxCell>
        <mxCell id="B9pUcW5qPqLrljrNED_7-501" value="" style="shape=flexArrow;endArrow=classic;html=1;rounded=0;strokeColor=#0d09f6;" edge="1" parent="1">
          <mxGeometry width="50" height="50" relative="1" as="geometry">
            <mxPoint x="487" y="1999.46" as="sourcePoint" />
            <mxPoint x="617" y="1999.46" as="targetPoint" />
          </mxGeometry>
        </mxCell>
        <mxCell id="B9pUcW5qPqLrljrNED_7-502" value="&lt;font color=&quot;#000000&quot;&gt;Reconcile&lt;/font&gt;" style="text;html=1;align=center;verticalAlign=middle;resizable=0;points=[];autosize=1;strokeColor=none;fillColor=none;fontSize=21;fontColor=#3399FF;" vertex="1" parent="1">
          <mxGeometry x="482" y="1926" width="120" height="40" as="geometry" />
        </mxCell>
        <mxCell id="B9pUcW5qPqLrljrNED_7-503" style="edgeStyle=orthogonalEdgeStyle;rounded=0;orthogonalLoop=1;jettySize=auto;html=1;exitX=0.5;exitY=1;exitDx=0;exitDy=0;" edge="1" parent="1" source="B9pUcW5qPqLrljrNED_7-505">
          <mxGeometry relative="1" as="geometry">
            <mxPoint x="755" y="1926" as="targetPoint" />
          </mxGeometry>
        </mxCell>
        <mxCell id="B9pUcW5qPqLrljrNED_7-504" value="child" style="edgeLabel;html=1;align=center;verticalAlign=middle;resizable=0;points=[];fontSize=21;" vertex="1" connectable="0" parent="B9pUcW5qPqLrljrNED_7-503">
          <mxGeometry x="-0.1972" y="-3" relative="1" as="geometry">
            <mxPoint x="-27" y="5" as="offset" />
          </mxGeometry>
        </mxCell>
        <mxCell id="B9pUcW5qPqLrljrNED_7-505" value="A" style="ellipse;whiteSpace=wrap;html=1;aspect=fixed;fontSize=26;fillColor=#FFCCCC;" vertex="1" parent="1">
          <mxGeometry x="725" y="1756" width="60" height="60" as="geometry" />
        </mxCell>
        <mxCell id="B9pUcW5qPqLrljrNED_7-506" style="edgeStyle=orthogonalEdgeStyle;rounded=0;orthogonalLoop=1;jettySize=auto;html=1;exitX=1;exitY=0.5;exitDx=0;exitDy=0;entryX=0;entryY=0.5;entryDx=0;entryDy=0;" edge="1" parent="1">
          <mxGeometry relative="1" as="geometry">
            <mxPoint x="785" y="1956" as="sourcePoint" />
            <mxPoint x="885" y="1956" as="targetPoint" />
          </mxGeometry>
        </mxCell>
        <mxCell id="B9pUcW5qPqLrljrNED_7-507" value="sibling" style="text;html=1;align=center;verticalAlign=middle;resizable=0;points=[];autosize=1;strokeColor=none;fillColor=none;fontSize=17;" vertex="1" parent="1">
          <mxGeometry x="790" y="1924" width="70" height="30" as="geometry" />
        </mxCell>
        <mxCell id="B9pUcW5qPqLrljrNED_7-508" value="" style="endArrow=classic;dashed=1;html=1;rounded=0;endFill=0;entryX=1;entryY=1;entryDx=0;entryDy=0;strokeColor=#fa0505;" edge="1" parent="1">
          <mxGeometry width="50" height="50" relative="1" as="geometry">
            <mxPoint x="776" y="1924" as="sourcePoint" />
            <mxPoint x="776.2132034355964" y="1815.2132034355964" as="targetPoint" />
            <Array as="points" />
          </mxGeometry>
        </mxCell>
        <mxCell id="B9pUcW5qPqLrljrNED_7-509" value="return" style="text;html=1;align=center;verticalAlign=middle;resizable=0;points=[];autosize=1;strokeColor=none;fillColor=none;fontSize=16;fontColor=#ed0202;" vertex="1" parent="1">
          <mxGeometry x="775" y="1856" width="70" height="30" as="geometry" />
        </mxCell>
        <mxCell id="B9pUcW5qPqLrljrNED_7-510" value="return" style="text;html=1;align=center;verticalAlign=middle;resizable=0;points=[];autosize=1;strokeColor=none;fillColor=none;fontSize=16;fontColor=#ed0202;" vertex="1" parent="1">
          <mxGeometry x="850" y="1856" width="70" height="30" as="geometry" />
        </mxCell>
        <mxCell id="B9pUcW5qPqLrljrNED_7-511" value="" style="endArrow=classic;dashed=1;html=1;rounded=0;endFill=0;strokeColor=#fa0505;entryX=1.058;entryY=0.787;entryDx=0;entryDy=0;entryPerimeter=0;" edge="1" parent="1" target="B9pUcW5qPqLrljrNED_7-505">
          <mxGeometry width="50" height="50" relative="1" as="geometry">
            <mxPoint x="914.23" y="1924" as="sourcePoint" />
            <mxPoint x="914" y="1815" as="targetPoint" />
            <Array as="points" />
          </mxGeometry>
        </mxCell>
        <mxCell id="B9pUcW5qPqLrljrNED_7-512" value="B" style="ellipse;whiteSpace=wrap;html=1;aspect=fixed;fontSize=26;fillColor=#FFCCCC;" vertex="1" parent="1">
          <mxGeometry x="725" y="1926" width="60" height="60" as="geometry" />
        </mxCell>
        <mxCell id="B9pUcW5qPqLrljrNED_7-513" value="C" style="ellipse;whiteSpace=wrap;html=1;aspect=fixed;fontSize=26;fillColor=#FFCCCC;" vertex="1" parent="1">
          <mxGeometry x="890" y="1926" width="60" height="60" as="geometry" />
        </mxCell>
        <mxCell id="B9pUcW5qPqLrljrNED_7-514" style="edgeStyle=orthogonalEdgeStyle;rounded=0;orthogonalLoop=1;jettySize=auto;html=1;exitX=0.5;exitY=1;exitDx=0;exitDy=0;" edge="1" parent="1">
          <mxGeometry relative="1" as="geometry">
            <mxPoint x="920" y="2056" as="targetPoint" />
            <mxPoint x="920.23" y="1986" as="sourcePoint" />
            <Array as="points">
              <mxPoint x="920" y="2021" />
              <mxPoint x="920" y="2021" />
            </Array>
          </mxGeometry>
        </mxCell>
        <mxCell id="B9pUcW5qPqLrljrNED_7-516" value="" style="verticalLabelPosition=bottom;verticalAlign=top;html=1;shape=mxgraph.basic.x;labelBackgroundColor=#f50505;fontColor=#ef0b0b;labelBorderColor=#e10505;fillColor=#f10909;" vertex="1" parent="1">
          <mxGeometry x="905" y="1996" width="30" height="30" as="geometry" />
        </mxCell>
        <mxCell id="B9pUcW5qPqLrljrNED_7-552" style="edgeStyle=orthogonalEdgeStyle;rounded=0;orthogonalLoop=1;jettySize=auto;html=1;exitX=0.5;exitY=1;exitDx=0;exitDy=0;" edge="1" parent="1" source="B9pUcW5qPqLrljrNED_7-554" target="B9pUcW5qPqLrljrNED_7-556">
          <mxGeometry relative="1" as="geometry" />
        </mxCell>
        <mxCell id="B9pUcW5qPqLrljrNED_7-553" value="child" style="edgeLabel;html=1;align=center;verticalAlign=middle;resizable=0;points=[];fontSize=21;" vertex="1" connectable="0" parent="B9pUcW5qPqLrljrNED_7-552">
          <mxGeometry x="-0.1972" y="-3" relative="1" as="geometry">
            <mxPoint x="-27" y="5" as="offset" />
          </mxGeometry>
        </mxCell>
        <mxCell id="B9pUcW5qPqLrljrNED_7-554" value="A" style="ellipse;whiteSpace=wrap;html=1;aspect=fixed;fontSize=26;fillColor=#FFCCCC;" vertex="1" parent="1">
          <mxGeometry x="1144" y="1558" width="60" height="60" as="geometry" />
        </mxCell>
        <mxCell id="B9pUcW5qPqLrljrNED_7-555" style="edgeStyle=orthogonalEdgeStyle;rounded=0;orthogonalLoop=1;jettySize=auto;html=1;exitX=1;exitY=0.5;exitDx=0;exitDy=0;entryX=0;entryY=0.5;entryDx=0;entryDy=0;" edge="1" parent="1" source="B9pUcW5qPqLrljrNED_7-556" target="B9pUcW5qPqLrljrNED_7-559">
          <mxGeometry relative="1" as="geometry" />
        </mxCell>
        <mxCell id="B9pUcW5qPqLrljrNED_7-556" value="B" style="ellipse;whiteSpace=wrap;html=1;aspect=fixed;fontSize=26;fillColor=#FFCCCC;" vertex="1" parent="1">
          <mxGeometry x="1144" y="1728" width="60" height="60" as="geometry" />
        </mxCell>
        <mxCell id="B9pUcW5qPqLrljrNED_7-557" style="edgeStyle=orthogonalEdgeStyle;rounded=0;orthogonalLoop=1;jettySize=auto;html=1;exitX=1;exitY=0.5;exitDx=0;exitDy=0;entryX=0;entryY=0.5;entryDx=0;entryDy=0;" edge="1" parent="1" source="B9pUcW5qPqLrljrNED_7-559" target="B9pUcW5qPqLrljrNED_7-564">
          <mxGeometry relative="1" as="geometry" />
        </mxCell>
        <mxCell id="B9pUcW5qPqLrljrNED_7-558" style="edgeStyle=orthogonalEdgeStyle;rounded=0;orthogonalLoop=1;jettySize=auto;html=1;exitX=0.5;exitY=1;exitDx=0;exitDy=0;entryX=0.5;entryY=0;entryDx=0;entryDy=0;" edge="1" parent="1" source="B9pUcW5qPqLrljrNED_7-559" target="B9pUcW5qPqLrljrNED_7-562">
          <mxGeometry relative="1" as="geometry" />
        </mxCell>
        <mxCell id="B9pUcW5qPqLrljrNED_7-559" value="C" style="ellipse;whiteSpace=wrap;html=1;aspect=fixed;fontSize=26;fillColor=#FFCCCC;" vertex="1" parent="1">
          <mxGeometry x="1304" y="1728" width="60" height="60" as="geometry" />
        </mxCell>
        <mxCell id="B9pUcW5qPqLrljrNED_7-561" value="" style="edgeStyle=orthogonalEdgeStyle;rounded=0;orthogonalLoop=1;jettySize=auto;html=1;" edge="1" parent="1" source="B9pUcW5qPqLrljrNED_7-562" target="B9pUcW5qPqLrljrNED_7-567">
          <mxGeometry relative="1" as="geometry" />
        </mxCell>
        <mxCell id="B9pUcW5qPqLrljrNED_7-562" value="D" style="ellipse;whiteSpace=wrap;html=1;aspect=fixed;fontSize=26;fillColor=#FFCCCC;dashed=1;dashPattern=12 12;" vertex="1" parent="1">
          <mxGeometry x="1304" y="1888" width="60" height="60" as="geometry" />
        </mxCell>
        <mxCell id="B9pUcW5qPqLrljrNED_7-564" value="M" style="ellipse;whiteSpace=wrap;html=1;aspect=fixed;fontSize=26;fillColor=#f60909;dashed=1;dashPattern=12 12;" vertex="1" parent="1">
          <mxGeometry x="1464" y="1728" width="60" height="60" as="geometry" />
        </mxCell>
        <mxCell id="B9pUcW5qPqLrljrNED_7-565" value="H" style="ellipse;whiteSpace=wrap;html=1;aspect=fixed;fontSize=26;fillColor=#FFCCCC;dashed=1;dashPattern=12 12;" vertex="1" parent="1">
          <mxGeometry x="1464" y="2048" width="60" height="60" as="geometry" />
        </mxCell>
        <mxCell id="B9pUcW5qPqLrljrNED_7-566" style="edgeStyle=orthogonalEdgeStyle;rounded=0;orthogonalLoop=1;jettySize=auto;html=1;exitX=0.5;exitY=1;exitDx=0;exitDy=0;entryX=0.5;entryY=0;entryDx=0;entryDy=0;" edge="1" parent="1" source="B9pUcW5qPqLrljrNED_7-567" target="B9pUcW5qPqLrljrNED_7-565">
          <mxGeometry relative="1" as="geometry" />
        </mxCell>
        <mxCell id="B9pUcW5qPqLrljrNED_7-567" value="F" style="ellipse;whiteSpace=wrap;html=1;aspect=fixed;fontSize=26;fillColor=#FFCCCC;dashed=1;dashPattern=12 12;" vertex="1" parent="1">
          <mxGeometry x="1464" y="1888" width="60" height="60" as="geometry" />
        </mxCell>
        <mxCell id="B9pUcW5qPqLrljrNED_7-568" value="child" style="edgeLabel;html=1;align=center;verticalAlign=middle;resizable=0;points=[];fontSize=21;" vertex="1" connectable="0" parent="1">
          <mxGeometry x="1304" y="1827.9953846153844" as="geometry" />
        </mxCell>
        <mxCell id="B9pUcW5qPqLrljrNED_7-570" value="child" style="edgeLabel;html=1;align=center;verticalAlign=middle;resizable=0;points=[];fontSize=21;" vertex="1" connectable="0" parent="1">
          <mxGeometry x="1464" y="1997.9953846153844" as="geometry" />
        </mxCell>
        <mxCell id="B9pUcW5qPqLrljrNED_7-571" value="sibling" style="text;html=1;align=center;verticalAlign=middle;resizable=0;points=[];autosize=1;strokeColor=none;fillColor=none;fontSize=17;" vertex="1" parent="1">
          <mxGeometry x="1209" y="1726" width="70" height="30" as="geometry" />
        </mxCell>
        <mxCell id="B9pUcW5qPqLrljrNED_7-572" value="&lt;span style=&quot;color: rgb(0, 0, 0); font-family: Helvetica; font-size: 17px; font-style: normal; font-variant-ligatures: normal; font-variant-caps: normal; font-weight: 400; letter-spacing: normal; orphans: 2; text-align: center; text-indent: 0px; text-transform: none; widows: 2; word-spacing: 0px; -webkit-text-stroke-width: 0px; white-space: nowrap; background-color: rgb(251, 251, 251); text-decoration-thickness: initial; text-decoration-style: initial; text-decoration-color: initial; float: none; display: inline !important;&quot;&gt;sibling&lt;/span&gt;" style="text;whiteSpace=wrap;html=1;fontSize=17;" vertex="1" parent="1">
          <mxGeometry x="1379" y="1728" width="80" height="40" as="geometry" />
        </mxCell>
        <mxCell id="B9pUcW5qPqLrljrNED_7-573" value="&lt;span style=&quot;color: rgb(0, 0, 0); font-family: Helvetica; font-size: 17px; font-style: normal; font-variant-ligatures: normal; font-variant-caps: normal; font-weight: 400; letter-spacing: normal; orphans: 2; text-align: center; text-indent: 0px; text-transform: none; widows: 2; word-spacing: 0px; -webkit-text-stroke-width: 0px; white-space: nowrap; background-color: rgb(251, 251, 251); text-decoration-thickness: initial; text-decoration-style: initial; text-decoration-color: initial; float: none; display: inline !important;&quot;&gt;sibling&lt;/span&gt;" style="text;whiteSpace=wrap;html=1;fontSize=17;" vertex="1" parent="1">
          <mxGeometry x="1379" y="1888" width="80" height="40" as="geometry" />
        </mxCell>
        <mxCell id="B9pUcW5qPqLrljrNED_7-574" value="" style="endArrow=classic;dashed=1;html=1;rounded=0;endFill=0;entryX=1;entryY=1;entryDx=0;entryDy=0;strokeColor=#fa0505;" edge="1" parent="1">
          <mxGeometry width="50" height="50" relative="1" as="geometry">
            <mxPoint x="1195" y="1726" as="sourcePoint" />
            <mxPoint x="1195.2132034355964" y="1617.2132034355964" as="targetPoint" />
            <Array as="points" />
          </mxGeometry>
        </mxCell>
        <mxCell id="B9pUcW5qPqLrljrNED_7-575" value="return" style="text;html=1;align=center;verticalAlign=middle;resizable=0;points=[];autosize=1;strokeColor=none;fillColor=none;fontSize=16;fontColor=#ed0202;" vertex="1" parent="1">
          <mxGeometry x="1194" y="1658" width="70" height="30" as="geometry" />
        </mxCell>
        <mxCell id="B9pUcW5qPqLrljrNED_7-576" value="return" style="text;html=1;align=center;verticalAlign=middle;resizable=0;points=[];autosize=1;strokeColor=none;fillColor=none;fontSize=16;fontColor=#ed0202;" vertex="1" parent="1">
          <mxGeometry x="1519" y="1963" width="70" height="30" as="geometry" />
        </mxCell>
        <mxCell id="B9pUcW5qPqLrljrNED_7-577" value="return" style="text;html=1;align=center;verticalAlign=middle;resizable=0;points=[];autosize=1;strokeColor=none;fillColor=none;fontSize=16;fontColor=#ed0202;" vertex="1" parent="1">
          <mxGeometry x="1424" y="1813" width="70" height="30" as="geometry" />
        </mxCell>
        <mxCell id="B9pUcW5qPqLrljrNED_7-579" value="return" style="text;html=1;align=center;verticalAlign=middle;resizable=0;points=[];autosize=1;strokeColor=none;fillColor=none;fontSize=16;fontColor=#ed0202;" vertex="1" parent="1">
          <mxGeometry x="1339" y="1838" width="70" height="30" as="geometry" />
        </mxCell>
        <mxCell id="B9pUcW5qPqLrljrNED_7-580" value="return" style="text;html=1;align=center;verticalAlign=middle;resizable=0;points=[];autosize=1;strokeColor=none;fillColor=none;fontSize=16;fontColor=#ed0202;" vertex="1" parent="1">
          <mxGeometry x="1269" y="1658" width="70" height="30" as="geometry" />
        </mxCell>
        <mxCell id="B9pUcW5qPqLrljrNED_7-581" value="return" style="text;html=1;align=center;verticalAlign=middle;resizable=0;points=[];autosize=1;strokeColor=none;fillColor=none;fontSize=16;fontColor=#ed0202;" vertex="1" parent="1">
          <mxGeometry x="1334" y="1623" width="70" height="30" as="geometry" />
        </mxCell>
        <mxCell id="B9pUcW5qPqLrljrNED_7-582" value="" style="endArrow=classic;dashed=1;html=1;rounded=0;endFill=0;strokeColor=#fa0505;exitX=0.314;exitY=0.005;exitDx=0;exitDy=0;exitPerimeter=0;" edge="1" parent="1" source="B9pUcW5qPqLrljrNED_7-567">
          <mxGeometry width="50" height="50" relative="1" as="geometry">
            <mxPoint x="1459" y="1888" as="sourcePoint" />
            <mxPoint x="1374" y="1788" as="targetPoint" />
            <Array as="points" />
          </mxGeometry>
        </mxCell>
        <mxCell id="B9pUcW5qPqLrljrNED_7-583" value="" style="endArrow=classic;dashed=1;html=1;rounded=0;endFill=0;entryX=1;entryY=1;entryDx=0;entryDy=0;strokeColor=#fa0505;" edge="1" parent="1">
          <mxGeometry width="50" height="50" relative="1" as="geometry">
            <mxPoint x="1519" y="2056.79" as="sourcePoint" />
            <mxPoint x="1519.2132034355964" y="1948.0032034355963" as="targetPoint" />
            <Array as="points" />
          </mxGeometry>
        </mxCell>
        <mxCell id="B9pUcW5qPqLrljrNED_7-585" value="" style="endArrow=classic;dashed=1;html=1;rounded=0;endFill=0;entryX=1;entryY=1;entryDx=0;entryDy=0;strokeColor=#fa0505;" edge="1" parent="1">
          <mxGeometry width="50" height="50" relative="1" as="geometry">
            <mxPoint x="1354" y="1878" as="sourcePoint" />
            <mxPoint x="1354.2132034355964" y="1788.0032034355963" as="targetPoint" />
            <Array as="points" />
          </mxGeometry>
        </mxCell>
        <mxCell id="B9pUcW5qPqLrljrNED_7-586" value="" style="endArrow=classic;dashed=1;html=1;rounded=0;endFill=0;strokeColor=#fa0505;" edge="1" parent="1">
          <mxGeometry width="50" height="50" relative="1" as="geometry">
            <mxPoint x="1469" y="1726" as="sourcePoint" />
            <mxPoint x="1214" y="1588" as="targetPoint" />
            <Array as="points" />
          </mxGeometry>
        </mxCell>
        <mxCell id="B9pUcW5qPqLrljrNED_7-587" value="" style="endArrow=classic;dashed=1;html=1;rounded=0;endFill=0;strokeColor=#fa0505;entryX=1.058;entryY=0.787;entryDx=0;entryDy=0;entryPerimeter=0;" edge="1" parent="1" target="B9pUcW5qPqLrljrNED_7-554">
          <mxGeometry width="50" height="50" relative="1" as="geometry">
            <mxPoint x="1333.23" y="1726" as="sourcePoint" />
            <mxPoint x="1333" y="1617" as="targetPoint" />
            <Array as="points" />
          </mxGeometry>
        </mxCell>
        <mxCell id="B9pUcW5qPqLrljrNED_7-588" value="第一次遍历" style="text;html=1;align=center;verticalAlign=middle;resizable=0;points=[];autosize=1;strokeColor=none;fillColor=none;fontSize=27;" vertex="1" parent="1">
          <mxGeometry x="750" y="2341" width="160" height="50" as="geometry" />
        </mxCell>
        <mxCell id="B9pUcW5qPqLrljrNED_7-589" value="第二次遍历" style="text;html=1;align=center;verticalAlign=middle;resizable=0;points=[];autosize=1;strokeColor=none;fillColor=none;fontSize=27;" vertex="1" parent="1">
          <mxGeometry x="1364" y="2348" width="160" height="50" as="geometry" />
        </mxCell>
        <mxCell id="B9pUcW5qPqLrljrNED_7-590" value="更新了节点" style="text;html=1;align=center;verticalAlign=middle;resizable=0;points=[];autosize=1;strokeColor=none;fillColor=none;fontColor=#006600;" vertex="1" parent="1">
          <mxGeometry x="407" y="1743" width="80" height="30" as="geometry" />
        </mxCell>
        <mxCell id="B9pUcW5qPqLrljrNED_7-591" value="更新了节点" style="text;html=1;align=center;verticalAlign=middle;resizable=0;points=[];autosize=1;strokeColor=none;fillColor=none;fontColor=#006600;" vertex="1" parent="1">
          <mxGeometry x="78" y="1930" width="80" height="30" as="geometry" />
        </mxCell>
        <mxCell id="B9pUcW5qPqLrljrNED_7-592" value="" style="shape=curlyBracket;whiteSpace=wrap;html=1;rounded=1;labelPosition=left;verticalLabelPosition=middle;align=right;verticalAlign=middle;size=0.5;" vertex="1" parent="1">
          <mxGeometry x="1139" y="2183" width="20" height="84" as="geometry" />
        </mxCell>
        <mxCell id="B9pUcW5qPqLrljrNED_7-600" value="" style="shape=curlyBracket;whiteSpace=wrap;html=1;rounded=1;flipH=1;labelPosition=right;verticalLabelPosition=middle;align=left;verticalAlign=middle;" vertex="1" parent="1">
          <mxGeometry x="1612" y="2179.51" width="20" height="90.98" as="geometry" />
        </mxCell>
        <mxCell id="B9pUcW5qPqLrljrNED_7-609" value="D" style="text;html=1;align=center;verticalAlign=middle;resizable=0;points=[];autosize=1;strokeColor=none;fillColor=none;fontSize=30;" vertex="1" parent="1">
          <mxGeometry x="1202" y="2204.98" width="50" height="50" as="geometry" />
        </mxCell>
        <mxCell id="B9pUcW5qPqLrljrNED_7-610" value="E" style="text;html=1;align=center;verticalAlign=middle;resizable=0;points=[];autosize=1;strokeColor=none;fillColor=none;fontSize=30;" vertex="1" parent="1">
          <mxGeometry x="1288" y="2204.98" width="40" height="50" as="geometry" />
        </mxCell>
        <mxCell id="B9pUcW5qPqLrljrNED_7-611" value="F" style="text;html=1;align=center;verticalAlign=middle;resizable=0;points=[];autosize=1;strokeColor=none;fillColor=none;fontSize=30;" vertex="1" parent="1">
          <mxGeometry x="1375" y="2204.98" width="40" height="50" as="geometry" />
        </mxCell>
        <mxCell id="B9pUcW5qPqLrljrNED_7-612" value="G" style="text;html=1;align=center;verticalAlign=middle;resizable=0;points=[];autosize=1;strokeColor=none;fillColor=none;fontSize=30;" vertex="1" parent="1">
          <mxGeometry x="1455" y="2204.98" width="50" height="50" as="geometry" />
        </mxCell>
        <mxCell id="B9pUcW5qPqLrljrNED_7-613" value="H" style="text;html=1;align=center;verticalAlign=middle;resizable=0;points=[];autosize=1;strokeColor=none;fillColor=none;fontSize=30;" vertex="1" parent="1">
          <mxGeometry x="1539" y="2204.98" width="50" height="50" as="geometry" />
        </mxCell>
        <mxCell id="B9pUcW5qPqLrljrNED_7-616" value="剩余旧fiber节点Map" style="text;html=1;align=center;verticalAlign=middle;resizable=0;points=[];autosize=1;strokeColor=none;fillColor=none;fontSize=32;fontColor=#004C99;" vertex="1" parent="1">
          <mxGeometry x="1654" y="2199.98" width="310" height="50" as="geometry" />
        </mxCell>
        <mxCell id="B9pUcW5qPqLrljrNED_7-617" value="" style="endArrow=classic;dashed=1;html=1;dashPattern=1 3;strokeWidth=2;rounded=0;endFill=1;strokeColor=#00CC00;fontColor=#00CC66;" edge="1" parent="1">
          <mxGeometry width="50" height="50" relative="1" as="geometry">
            <mxPoint x="1229" y="2198" as="sourcePoint" />
            <mxPoint x="1315" y="1959" as="targetPoint" />
          </mxGeometry>
        </mxCell>
        <mxCell id="B9pUcW5qPqLrljrNED_7-618" value="&lt;font color=&quot;#009900&quot; style=&quot;font-size: 16px;&quot;&gt;复用&lt;/font&gt;" style="edgeLabel;html=1;align=center;verticalAlign=middle;resizable=0;points=[];" vertex="1" connectable="0" parent="B9pUcW5qPqLrljrNED_7-617">
          <mxGeometry x="0.016" y="-2" relative="1" as="geometry">
            <mxPoint as="offset" />
          </mxGeometry>
        </mxCell>
        <mxCell id="B9pUcW5qPqLrljrNED_7-621" value="" style="endArrow=classic;dashed=1;html=1;dashPattern=1 3;strokeWidth=2;rounded=0;endFill=1;strokeColor=#00CC00;fontColor=#00CC66;" edge="1" parent="1" source="B9pUcW5qPqLrljrNED_7-611">
          <mxGeometry width="50" height="50" relative="1" as="geometry">
            <mxPoint x="1396" y="2163" as="sourcePoint" />
            <mxPoint x="1459" y="1938" as="targetPoint" />
            <Array as="points" />
          </mxGeometry>
        </mxCell>
        <mxCell id="B9pUcW5qPqLrljrNED_7-622" value="&lt;font color=&quot;#009900&quot; style=&quot;font-size: 16px;&quot;&gt;复用&lt;/font&gt;" style="edgeLabel;html=1;align=center;verticalAlign=middle;resizable=0;points=[];" vertex="1" connectable="0" parent="B9pUcW5qPqLrljrNED_7-621">
          <mxGeometry x="0.016" y="-2" relative="1" as="geometry">
            <mxPoint x="-26" y="-2" as="offset" />
          </mxGeometry>
        </mxCell>
        <mxCell id="B9pUcW5qPqLrljrNED_7-623" value="数组里没有则新建" style="text;html=1;align=center;verticalAlign=middle;resizable=0;points=[];autosize=1;strokeColor=#d79b00;fillColor=#ffcd28;fontSize=19;gradientColor=#ffa500;" vertex="1" parent="1">
          <mxGeometry x="1634" y="1858" width="180" height="40" as="geometry" />
        </mxCell>
        <mxCell id="B9pUcW5qPqLrljrNED_7-626" value="" style="endArrow=classic;dashed=1;html=1;dashPattern=1 3;strokeWidth=2;rounded=0;endFill=1;strokeColor=#00CC00;fontColor=#00CC66;entryX=0.5;entryY=1;entryDx=0;entryDy=0;" edge="1" parent="1" target="B9pUcW5qPqLrljrNED_7-565">
          <mxGeometry width="50" height="50" relative="1" as="geometry">
            <mxPoint x="1559" y="2204.98" as="sourcePoint" />
            <mxPoint x="1654" y="1984.98" as="targetPoint" />
          </mxGeometry>
        </mxCell>
        <mxCell id="B9pUcW5qPqLrljrNED_7-627" value="&lt;font color=&quot;#009900&quot; style=&quot;font-size: 16px;&quot;&gt;复用&lt;/font&gt;" style="edgeLabel;html=1;align=center;verticalAlign=middle;resizable=0;points=[];" vertex="1" connectable="0" parent="B9pUcW5qPqLrljrNED_7-626">
          <mxGeometry x="0.016" y="-2" relative="1" as="geometry">
            <mxPoint as="offset" />
          </mxGeometry>
        </mxCell>
        <mxCell id="B9pUcW5qPqLrljrNED_7-630" style="edgeStyle=orthogonalEdgeStyle;rounded=0;orthogonalLoop=1;jettySize=auto;html=1;exitX=1;exitY=0.5;exitDx=0;exitDy=0;entryX=0.653;entryY=0.019;entryDx=0;entryDy=0;entryPerimeter=0;elbow=vertical;curved=1;startArrow=classic;startFill=1;endArrow=none;endFill=0;dashed=1;fillColor=#ffcd28;strokeColor=#d79b00;gradientColor=#ffa500;" edge="1" parent="1" source="B9pUcW5qPqLrljrNED_7-564" target="B9pUcW5qPqLrljrNED_7-624">
          <mxGeometry relative="1" as="geometry" />
        </mxCell>
        <mxCell id="B9pUcW5qPqLrljrNED_7-639" value="" style="verticalLabelPosition=bottom;verticalAlign=top;html=1;shape=mxgraph.basic.x;labelBackgroundColor=#f50505;fontColor=#ef0b0b;labelBorderColor=#e10505;fillColor=#f10909;opacity=20;" vertex="1" parent="1">
          <mxGeometry x="1285" y="2207.96" width="49" height="47.02" as="geometry" />
        </mxCell>
        <mxCell id="B9pUcW5qPqLrljrNED_7-645" value="" style="verticalLabelPosition=bottom;verticalAlign=top;html=1;shape=mxgraph.basic.x;labelBackgroundColor=#f50505;fontColor=#ef0b0b;labelBorderColor=#e10505;fillColor=#f10909;opacity=20;" vertex="1" parent="1">
          <mxGeometry x="1456" y="2207.96" width="49" height="47.02" as="geometry" />
        </mxCell>
      </root>
    </mxGraphModel>
  </diagram>
</mxfile>
